<svg xmlns="http://www.w3.org/2000/svg" width="500" height="500" viewBox="0 0 500 500">
  <g fill="none" stroke="#11d473" stroke-width="0.9" stroke-linecap="round" stroke-linejoin="round" opacity="0.08">
<g transform="translate(187,482) scale(0.737) rotate(12,12,12)"><path d="M3 12l9-9 9 9"/><path d="M5 10v8h4v-4h6v4h4v-8"/></g>
<g transform="translate(162,48) scale(0.684) rotate(21,12,12)"><path d="M4 19.5A2.5 2.5 0 0 1 6.5 17H20"/><path d="M6.5 2H20v20H6.5A2.5 2.5 0 0 1 4 19.5v-15A2.5 2.5 0 0 1 6.5 2z"/></g>
<g transform="translate(103,184) scale(1.025) rotate(-6,12,12)"><circle cx="12" cy="12" r="9"/><ellipse cx="12" cy="12" rx="4" ry="9"/><line x1="3" y1="12" x2="21" y2="12"/></g>
<g transform="translate(-8,293) scale(0.823) rotate(-8,12,12)"><rect x="2" y="4" width="20" height="16" rx="2"/><polyline points="2,4 12,13 22,4"/></g>
<g transform="translate(93,344) scale(0.594) rotate(6,12,12)"><circle cx="12" cy="12" r="4"/><line x1="12" y1="2" x2="12" y2="5"/><line x1="12" y1="19" x2="12" y2="22"/><line x1="2" y1="12" x2="5" y2="12"/><line x1="19" y1="12" x2="22" y2="12"/></g>
<g transform="translate(-7,426) scale(0.759) rotate(-7,12,12)"><circle cx="12" cy="12" r="4"/><line x1="12" y1="2" x2="12" y2="5"/><line x1="12" y1="19" x2="12" y2="22"/><line x1="2" y1="12" x2="5" y2="12"/><line x1="19" y1="12" x2="22" y2="12"/></g>
<g transform="translate(199,494) scale(1.010) rotate(16,12,12)"><circle cx="12" cy="12" r="9"/><ellipse cx="12" cy="12" rx="4" ry="9"/><line x1="3" y1="12" x2="21" y2="12"/></g>
<g transform="translate(135,180) scale(1.038) rotate(-2,12,12)"><line x1="5" y1="5" x2="19" y2="19"/><line x1="5" y1="9" x2="19" y2="9"/><line x1="5" y1="15" x2="19" y2="15"/><line x1="8" y1="3" x2="8" y2="21"/><line x1="16" y1="3" x2="16" y2="21"/></g>
<g transform="translate(503,357) scale(0.753) rotate(-27,12,12)"><path d="M12 2C8.13 2 5 5.13 5 9c0 5.25 7 13 7 13s7-7.75 7-13c0-3.87-3.13-7-7-7z"/><circle cx="12" cy="9" r="2.5"/></g>
<g transform="translate(427,374) scale(0.971) rotate(-2,12,12)"><circle cx="12" cy="12" r="9"/><polyline points="9,12 11,14 15,10"/></g>
<g transform="translate(110,434) scale(1.016) rotate(21,12,12)"><polygon points="12,2 15.09,8.26 22,9.27 17,14.14 18.18,21.02 12,17.77 5.82,21.02 7,14.14 2,9.27 8.91,8.26"/></g>
<g transform="translate(135,270) scale(0.726) rotate(-4,12,12)"><circle cx="12" cy="12" r="9"/><polyline points="9,12 11,14 15,10"/></g>
<g transform="translate(494,191) scale(0.596) rotate(-4,12,12)"><path d="M3 4h18a2 2 0 0 1 2 2v8a2 2 0 0 1-2 2H8l-5 4v-4a2 2 0 0 1-2-2V6a2 2 0 0 1 2-2z"/></g>
<g transform="translate(433,298) scale(0.976) rotate(27,12,12)"><path d="M3 4h18a2 2 0 0 1 2 2v8a2 2 0 0 1-2 2H8l-5 4v-4a2 2 0 0 1-2-2V6a2 2 0 0 1 2-2z"/></g>
<g transform="translate(496,200) scale(0.925) rotate(-18,12,12)"><path d="M4 15s1-1 4-1 5 2 8 2 4-1 4-1V3s-1 1-4 1-5-2-8-2-4 1-4 1z"/><line x1="4" y1="22" x2="4" y2="15"/></g>
<g transform="translate(174,125) scale(0.566) rotate(19,12,12)"><rect x="1" y="4" width="14" height="10" rx="1"/><path d="M15 8h5l3 4v2h-8z"/><circle cx="6" cy="16" r="2"/><circle cx="20" cy="16" r="2"/></g>
<g transform="translate(343,246) scale(0.789) rotate(18,12,12)"><circle cx="12" cy="7" r="4"/><path d="M3 21c0-5 4-8 9-8s9 3 9 8"/></g>
<g transform="translate(247,247) scale(0.817) rotate(-23,12,12)"><circle cx="11" cy="11" r="7"/><line x1="21" y1="21" x2="16.65" y2="16.65"/></g>
<g transform="translate(46,223) scale(1.031) rotate(-27,12,12)"><path d="M9 18V5l12-2v13"/><circle cx="6" cy="18" r="3"/><circle cx="18" cy="16" r="3"/></g>
<g transform="translate(353,339) scale(0.753) rotate(-17,12,12)"><rect x="1" y="4" width="14" height="10" rx="1"/><path d="M15 8h5l3 4v2h-8z"/><circle cx="6" cy="16" r="2"/><circle cx="20" cy="16" r="2"/></g>
<g transform="translate(506,163) scale(0.979) rotate(-8,12,12)"><path d="M2 4h9c1 0 2 .9 2 2v14c-1-.7-2-1.2-3-1.2H2V4z"/><path d="M22 4h-9c-1 0-2 .9-2 2v14c1-.7 2-1.2 3-1.2H22V4z"/></g>
<g transform="translate(307,171) scale(0.633) rotate(-26,12,12)"><circle cx="8" cy="14" r="4"/><path d="M12 10l8-8"/><path d="M18 4l2 2"/><path d="M20 8l2 2"/></g>
<g transform="translate(427,199) scale(0.617) rotate(7,12,12)"><path d="M5 12.55a11 11 0 0 1 14.08 0"/><path d="M1.42 9a16 16 0 0 1 21.16 0"/><path d="M8.53 16.11a6 6 0 0 1 6.95 0"/><line x1="12" y1="20" x2="12.01" y2="20"/></g>
<g transform="translate(-0,316) scale(0.558) rotate(4,12,12)"><path d="M9 18V5l12-2v13"/><circle cx="6" cy="18" r="3"/><circle cx="18" cy="16" r="3"/></g>
<g transform="translate(230,509) scale(0.994) rotate(7,12,12)"><rect x="3" y="8" width="18" height="14" rx="1"/><path d="M21 8H3"/><path d="M12 8V22"/><path d="M8 8C8 5.8 9.8 4 12 4s4 1.8 4 4"/><path d="M12 4c-1.1 0-2-.9-2-2s.9-2 2-2 2 .9 2 2"/></g>
<g transform="translate(121,179) scale(1.044) rotate(-19,12,12)"><path d="M3 12l9-9 9 9"/><path d="M5 10v8h4v-4h6v4h4v-8"/></g>
<g transform="translate(415,194) scale(0.798) rotate(-9,12,12)"><path d="M3 10l4-2v8l-4-2V10z"/><path d="M7 8l9-5v18l-9-5"/></g>
<g transform="translate(47,257) scale(0.723) rotate(11,12,12)"><path d="M3 4h18a2 2 0 0 1 2 2v8a2 2 0 0 1-2 2H8l-5 4v-4a2 2 0 0 1-2-2V6a2 2 0 0 1 2-2z"/></g>
<g transform="translate(271,19) scale(0.708) rotate(-28,12,12)"><circle cx="11" cy="11" r="7"/><line x1="21" y1="21" x2="16.65" y2="16.65"/></g>
<g transform="translate(497,19) scale(0.573) rotate(-29,12,12)"><path d="M23 19a2 2 0 0 1-2 2H3a2 2 0 0 1-2-2V8a2 2 0 0 1 2-2h4l2-3h6l2 3h4a2 2 0 0 1 2 2z"/><circle cx="12" cy="13" r="4"/></g>
<g transform="translate(408,171) scale(0.802) rotate(6,12,12)"><path d="M12 2l7 3v5c0 5-3 9-7 11C8 19 5 15 5 10V5l7-3z"/></g>
<g transform="translate(254,413) scale(0.870) rotate(-4,12,12)"><path d="M5 12.55a11 11 0 0 1 14.08 0"/><path d="M1.42 9a16 16 0 0 1 21.16 0"/><path d="M8.53 16.11a6 6 0 0 1 6.95 0"/><line x1="12" y1="20" x2="12.01" y2="20"/></g>
<g transform="translate(324,128) scale(0.805) rotate(26,12,12)"><line x1="5" y1="5" x2="19" y2="19"/><line x1="5" y1="9" x2="19" y2="9"/><line x1="5" y1="15" x2="19" y2="15"/><line x1="8" y1="3" x2="8" y2="21"/><line x1="16" y1="3" x2="16" y2="21"/></g>
<g transform="translate(211,258) scale(0.570) rotate(24,12,12)"><circle cx="12" cy="12" r="4"/><line x1="12" y1="2" x2="12" y2="5"/><line x1="12" y1="19" x2="12" y2="22"/><line x1="2" y1="12" x2="5" y2="12"/><line x1="19" y1="12" x2="22" y2="12"/></g>
<g transform="translate(161,116) scale(1.036) rotate(15,12,12)"><path d="M10 2a1 1 0 1 1 2 0v1a5 5 0 0 1 5 5v3l2 2H3l2-2V8a5 5 0 0 1 5-5V2z"/><path d="M9 17a3 3 0 0 0 6 0"/></g>
<g transform="translate(354,136) scale(0.692) rotate(-24,12,12)"><circle cx="12" cy="12" r="9"/><ellipse cx="12" cy="12" rx="4" ry="9"/><line x1="3" y1="12" x2="21" y2="12"/></g>
<g transform="translate(56,64) scale(0.838) rotate(-19,12,12)"><path d="M12 6C10.5 2 5 2 3 6c-2 4 0 8 9 14 9-6 11-10 9-14-2-4-7.5-4-9 0z"/></g>
<g transform="translate(133,493) scale(0.752) rotate(19,12,12)"><polygon points="12,2 15.09,8.26 22,9.27 17,14.14 18.18,21.02 12,17.77 5.82,21.02 7,14.14 2,9.27 8.91,8.26"/></g>
<g transform="translate(283,478) scale(0.863) rotate(2,12,12)"><path d="M12 2C8.13 2 5 5.13 5 9c0 5.25 7 13 7 13s7-7.75 7-13c0-3.87-3.13-7-7-7z"/><circle cx="12" cy="9" r="2.5"/></g>
<g transform="translate(294,442) scale(0.857) rotate(3,12,12)"><path d="M9 18V5l12-2v13"/><circle cx="6" cy="18" r="3"/><circle cx="18" cy="16" r="3"/></g>
<g transform="translate(330,233) scale(0.589) rotate(3,12,12)"><path d="M12 2l7 3v5c0 5-3 9-7 11C8 19 5 15 5 10V5l7-3z"/></g>
<g transform="translate(448,446) scale(0.577) rotate(10,12,12)"><rect x="2" y="4" width="20" height="16" rx="2"/><polyline points="2,4 12,13 22,4"/></g>
<g transform="translate(495,180) scale(0.664) rotate(-7,12,12)"><line x1="5" y1="5" x2="19" y2="19"/><line x1="5" y1="9" x2="19" y2="9"/><line x1="5" y1="15" x2="19" y2="15"/><line x1="8" y1="3" x2="8" y2="21"/><line x1="16" y1="3" x2="16" y2="21"/></g>
<g transform="translate(61,428) scale(0.660) rotate(-8,12,12)"><line x1="5" y1="5" x2="19" y2="19"/><line x1="5" y1="9" x2="19" y2="9"/><line x1="5" y1="15" x2="19" y2="15"/><line x1="8" y1="3" x2="8" y2="21"/><line x1="16" y1="3" x2="16" y2="21"/></g>
<g transform="translate(243,11) scale(0.857) rotate(-2,12,12)"><circle cx="11" cy="11" r="7"/><line x1="21" y1="21" x2="16.65" y2="16.65"/></g>
<g transform="translate(92,53) scale(0.801) rotate(19,12,12)"><path d="M4 19.5A2.5 2.5 0 0 1 6.5 17H20"/><path d="M6.5 2H20v20H6.5A2.5 2.5 0 0 1 4 19.5v-15A2.5 2.5 0 0 1 6.5 2z"/></g>
<g transform="translate(229,481) scale(0.891) rotate(14,12,12)"><rect x="3" y="8" width="18" height="14" rx="1"/><path d="M21 8H3"/><path d="M12 8V22"/><path d="M8 8C8 5.8 9.8 4 12 4s4 1.8 4 4"/><path d="M12 4c-1.1 0-2-.9-2-2s.9-2 2-2 2 .9 2 2"/></g>
<g transform="translate(235,325) scale(0.586) rotate(-17,12,12)"><path d="M2 4h9c1 0 2 .9 2 2v14c-1-.7-2-1.2-3-1.2H2V4z"/><path d="M22 4h-9c-1 0-2 .9-2 2v14c1-.7 2-1.2 3-1.2H22V4z"/></g>
<g transform="translate(355,132) scale(0.940) rotate(-4,12,12)"><path d="M12 3l-7 8h4l-5 7h16l-5-7h4z"/><line x1="12" y1="18" x2="12" y2="22"/></g>
<g transform="translate(404,-7) scale(0.712) rotate(-6,12,12)"><path d="M12 22V12"/><path d="M5 12H2l10-10 10 10h-3"/><path d="M5 17H2l10-10 10 10h-3"/></g>
<g transform="translate(33,248) scale(0.917) rotate(14,12,12)"><path d="M9 18V5l12-2v13"/><circle cx="6" cy="18" r="3"/><circle cx="18" cy="16" r="3"/></g>
<g transform="translate(399,240) scale(0.564) rotate(17,12,12)"><rect x="3" y="8" width="18" height="14" rx="1"/><path d="M21 8H3"/><path d="M12 8V22"/><path d="M8 8C8 5.8 9.8 4 12 4s4 1.8 4 4"/><path d="M12 4c-1.1 0-2-.9-2-2s.9-2 2-2 2 .9 2 2"/></g>
<g transform="translate(186,226) scale(0.687) rotate(9,12,12)"><rect x="3" y="8" width="18" height="14" rx="1"/><path d="M21 8H3"/><path d="M12 8V22"/><path d="M8 8C8 5.8 9.8 4 12 4s4 1.8 4 4"/><path d="M12 4c-1.1 0-2-.9-2-2s.9-2 2-2 2 .9 2 2"/></g>
<g transform="translate(31,49) scale(0.614) rotate(-21,12,12)"><polygon points="12,2 15.09,8.26 22,9.27 17,14.14 18.18,21.02 12,17.77 5.82,21.02 7,14.14 2,9.27 8.91,8.26"/></g>
<g transform="translate(269,23) scale(0.635) rotate(30,12,12)"><path d="M3 10l4-2v8l-4-2V10z"/><path d="M7 8l9-5v18l-9-5"/></g>
<g transform="translate(428,362) scale(0.848) rotate(-19,12,12)"><line x1="5" y1="5" x2="19" y2="19"/><line x1="5" y1="9" x2="19" y2="9"/><line x1="5" y1="15" x2="19" y2="15"/><line x1="8" y1="3" x2="8" y2="21"/><line x1="16" y1="3" x2="16" y2="21"/></g>
<g transform="translate(102,381) scale(0.633) rotate(-4,12,12)"><path d="M4 19.5A2.5 2.5 0 0 1 6.5 17H20"/><path d="M6.5 2H20v20H6.5A2.5 2.5 0 0 1 4 19.5v-15A2.5 2.5 0 0 1 6.5 2z"/></g>
<g transform="translate(499,136) scale(0.820) rotate(-3,12,12)"><circle cx="11" cy="11" r="7"/><line x1="21" y1="21" x2="16.65" y2="16.65"/></g>
<g transform="translate(500,177) scale(0.877) rotate(-26,12,12)"><rect x="3" y="8" width="18" height="14" rx="1"/><path d="M21 8H3"/><path d="M12 8V22"/><path d="M8 8C8 5.8 9.8 4 12 4s4 1.8 4 4"/><path d="M12 4c-1.1 0-2-.9-2-2s.9-2 2-2 2 .9 2 2"/></g>
<g transform="translate(504,237) scale(1.042) rotate(-30,12,12)"><circle cx="11" cy="11" r="7"/><line x1="21" y1="21" x2="16.65" y2="16.65"/></g>
<g transform="translate(88,138) scale(0.844) rotate(3,12,12)"><path d="M12 3l-7 8h4l-5 7h16l-5-7h4z"/><line x1="12" y1="18" x2="12" y2="22"/></g>
<g transform="translate(387,93) scale(0.973) rotate(20,12,12)"><rect x="2" y="4" width="20" height="16" rx="2"/><polyline points="2,4 12,13 22,4"/></g>
<g transform="translate(474,411) scale(0.848) rotate(18,12,12)"><line x1="12" y1="4" x2="12" y2="20"/><line x1="4" y1="12" x2="20" y2="12"/></g>
<g transform="translate(448,57) scale(0.943) rotate(26,12,12)"><circle cx="11" cy="11" r="7"/><line x1="21" y1="21" x2="16.65" y2="16.65"/></g>
<g transform="translate(53,435) scale(0.737) rotate(-14,12,12)"><path d="M23 19a2 2 0 0 1-2 2H3a2 2 0 0 1-2-2V8a2 2 0 0 1 2-2h4l2-3h6l2 3h4a2 2 0 0 1 2 2z"/><circle cx="12" cy="13" r="4"/></g>
<g transform="translate(382,200) scale(0.704) rotate(-6,12,12)"><rect x="3" y="8" width="18" height="14" rx="1"/><path d="M21 8H3"/><path d="M12 8V22"/><path d="M8 8C8 5.8 9.8 4 12 4s4 1.8 4 4"/><path d="M12 4c-1.1 0-2-.9-2-2s.9-2 2-2 2 .9 2 2"/></g>
<g transform="translate(123,172) scale(0.896) rotate(19,12,12)"><path d="M23 19a2 2 0 0 1-2 2H3a2 2 0 0 1-2-2V8a2 2 0 0 1 2-2h4l2-3h6l2 3h4a2 2 0 0 1 2 2z"/><circle cx="12" cy="13" r="4"/></g>
<g transform="translate(196,246) scale(0.991) rotate(3,12,12)"><rect x="2" y="4" width="20" height="16" rx="2"/><polyline points="2,4 12,13 22,4"/></g>
<g transform="translate(180,65) scale(0.749) rotate(-13,12,12)"><rect x="3" y="8" width="18" height="14" rx="1"/><path d="M21 8H3"/><path d="M12 8V22"/><path d="M8 8C8 5.8 9.8 4 12 4s4 1.8 4 4"/><path d="M12 4c-1.1 0-2-.9-2-2s.9-2 2-2 2 .9 2 2"/></g>
<g transform="translate(-1,352) scale(0.699) rotate(12,12,12)"><path d="M5 12.55a11 11 0 0 1 14.08 0"/><path d="M1.42 9a16 16 0 0 1 21.16 0"/><path d="M8.53 16.11a6 6 0 0 1 6.95 0"/><line x1="12" y1="20" x2="12.01" y2="20"/></g>
<g transform="translate(275,243) scale(0.552) rotate(29,12,12)"><path d="M12 6C10.5 2 5 2 3 6c-2 4 0 8 9 14 9-6 11-10 9-14-2-4-7.5-4-9 0z"/></g>
<g transform="translate(198,480) scale(0.743) rotate(0,12,12)"><path d="M3 10l4-2v8l-4-2V10z"/><path d="M7 8l9-5v18l-9-5"/></g>
<g transform="translate(466,234) scale(0.877) rotate(-8,12,12)"><rect x="3" y="8" width="18" height="14" rx="1"/><path d="M21 8H3"/><path d="M12 8V22"/><path d="M8 8C8 5.8 9.8 4 12 4s4 1.8 4 4"/><path d="M12 4c-1.1 0-2-.9-2-2s.9-2 2-2 2 .9 2 2"/></g>
<g transform="translate(205,102) scale(0.922) rotate(20,12,12)"><polygon points="12,2 15.09,8.26 22,9.27 17,14.14 18.18,21.02 12,17.77 5.82,21.02 7,14.14 2,9.27 8.91,8.26"/></g>
<g transform="translate(174,133) scale(0.937) rotate(-19,12,12)"><path d="M14 9V5a3 3 0 0 0-3-3l-4 9v11h11a2 2 0 0 0 2-1.7l1.4-9A2 2 0 0 0 20 9z"/><path d="M7 22H4a2 2 0 0 1-2-2v-7a2 2 0 0 1 2-2h3"/></g>
<g transform="translate(182,401) scale(0.896) rotate(-14,12,12)"><rect x="2" y="4" width="20" height="16" rx="2"/><polyline points="2,4 12,13 22,4"/></g>
<g transform="translate(328,211) scale(0.698) rotate(-2,12,12)"><polygon points="12,2 15.09,8.26 22,9.27 17,14.14 18.18,21.02 12,17.77 5.82,21.02 7,14.14 2,9.27 8.91,8.26"/></g>
<g transform="translate(252,364) scale(0.836) rotate(-11,12,12)"><path d="M12 22V12"/><path d="M5 12H2l10-10 10 10h-3"/><path d="M5 17H2l10-10 10 10h-3"/></g>
<g transform="translate(26,95) scale(0.699) rotate(-25,12,12)"><line x1="5" y1="5" x2="19" y2="19"/><line x1="5" y1="9" x2="19" y2="9"/><line x1="5" y1="15" x2="19" y2="15"/><line x1="8" y1="3" x2="8" y2="21"/><line x1="16" y1="3" x2="16" y2="21"/></g>
<g transform="translate(1,297) scale(1.046) rotate(5,12,12)"><path d="M12 22V12"/><path d="M5 12H2l10-10 10 10h-3"/><path d="M5 17H2l10-10 10 10h-3"/></g>
<g transform="translate(282,508) scale(0.660) rotate(23,12,12)"><circle cx="11" cy="11" r="7"/><line x1="21" y1="21" x2="16.65" y2="16.65"/></g>
<g transform="translate(106,416) scale(0.607) rotate(9,12,12)"><path d="M12 2C8.13 2 5 5.13 5 9c0 5.25 7 13 7 13s7-7.75 7-13c0-3.87-3.13-7-7-7z"/><circle cx="12" cy="9" r="2.5"/></g>
<g transform="translate(244,72) scale(0.820) rotate(6,12,12)"><path d="M4 19.5A2.5 2.5 0 0 1 6.5 17H20"/><path d="M6.5 2H20v20H6.5A2.5 2.5 0 0 1 4 19.5v-15A2.5 2.5 0 0 1 6.5 2z"/></g>
<g transform="translate(223,115) scale(0.946) rotate(-4,12,12)"><path d="M4 19.5A2.5 2.5 0 0 1 6.5 17H20"/><path d="M6.5 2H20v20H6.5A2.5 2.5 0 0 1 4 19.5v-15A2.5 2.5 0 0 1 6.5 2z"/></g>
<g transform="translate(55,476) scale(0.990) rotate(-6,12,12)"><path d="M9 18V5l12-2v13"/><circle cx="6" cy="18" r="3"/><circle cx="18" cy="16" r="3"/></g>
<g transform="translate(160,90) scale(0.872) rotate(2,12,12)"><path d="M4 15s1-1 4-1 5 2 8 2 4-1 4-1V3s-1 1-4 1-5-2-8-2-4 1-4 1z"/><line x1="4" y1="22" x2="4" y2="15"/></g>
<g transform="translate(131,490) scale(0.742) rotate(-19,12,12)"><circle cx="12" cy="7" r="4"/><path d="M3 21c0-5 4-8 9-8s9 3 9 8"/></g>
<g transform="translate(210,19) scale(0.703) rotate(20,12,12)"><rect x="1" y="4" width="14" height="10" rx="1"/><path d="M15 8h5l3 4v2h-8z"/><circle cx="6" cy="16" r="2"/><circle cx="20" cy="16" r="2"/></g>
<g transform="translate(92,270) scale(0.756) rotate(16,12,12)"><path d="M10 2a1 1 0 1 1 2 0v1a5 5 0 0 1 5 5v3l2 2H3l2-2V8a5 5 0 0 1 5-5V2z"/><path d="M9 17a3 3 0 0 0 6 0"/></g>
<g transform="translate(508,2) scale(0.830) rotate(-2,12,12)"><path d="M2 4h9c1 0 2 .9 2 2v14c-1-.7-2-1.2-3-1.2H2V4z"/><path d="M22 4h-9c-1 0-2 .9-2 2v14c1-.7 2-1.2 3-1.2H22V4z"/></g>
<g transform="translate(442,52) scale(0.864) rotate(-1,12,12)"><path d="M14 9V5a3 3 0 0 0-3-3l-4 9v11h11a2 2 0 0 0 2-1.7l1.4-9A2 2 0 0 0 20 9z"/><path d="M7 22H4a2 2 0 0 1-2-2v-7a2 2 0 0 1 2-2h3"/></g>
<g transform="translate(440,70) scale(0.930) rotate(29,12,12)"><path d="M10 2a1 1 0 1 1 2 0v1a5 5 0 0 1 5 5v3l2 2H3l2-2V8a5 5 0 0 1 5-5V2z"/><path d="M9 17a3 3 0 0 0 6 0"/></g>
<g transform="translate(30,40) scale(0.704) rotate(4,12,12)"><circle cx="12" cy="12" r="9"/><ellipse cx="12" cy="12" rx="4" ry="9"/><line x1="3" y1="12" x2="21" y2="12"/></g>
<g transform="translate(61,100) scale(0.977) rotate(26,12,12)"><path d="M12 6C10.5 2 5 2 3 6c-2 4 0 8 9 14 9-6 11-10 9-14-2-4-7.5-4-9 0z"/></g>
<g transform="translate(325,416) scale(0.618) rotate(-11,12,12)"><circle cx="11" cy="11" r="7"/><line x1="21" y1="21" x2="16.65" y2="16.65"/></g>
<g transform="translate(323,435) scale(1.031) rotate(4,12,12)"><rect x="2" y="4" width="20" height="16" rx="2"/><polyline points="2,4 12,13 22,4"/></g>
<g transform="translate(324,315) scale(0.626) rotate(23,12,12)"><path d="M9 18V5l12-2v13"/><circle cx="6" cy="18" r="3"/><circle cx="18" cy="16" r="3"/></g>
<g transform="translate(108,38) scale(0.983) rotate(4,12,12)"><rect x="3" y="8" width="18" height="14" rx="1"/><path d="M21 8H3"/><path d="M12 8V22"/><path d="M8 8C8 5.8 9.8 4 12 4s4 1.8 4 4"/><path d="M12 4c-1.1 0-2-.9-2-2s.9-2 2-2 2 .9 2 2"/></g>
<g transform="translate(106,144) scale(0.948) rotate(18,12,12)"><polygon points="12,2 15.09,8.26 22,9.27 17,14.14 18.18,21.02 12,17.77 5.82,21.02 7,14.14 2,9.27 8.91,8.26"/></g>
<g transform="translate(68,471) scale(0.911) rotate(-23,12,12)"><path d="M12 6C10.5 2 5 2 3 6c-2 4 0 8 9 14 9-6 11-10 9-14-2-4-7.5-4-9 0z"/></g>
<g transform="translate(337,356) scale(0.645) rotate(22,12,12)"><path d="M12 6C10.5 2 5 2 3 6c-2 4 0 8 9 14 9-6 11-10 9-14-2-4-7.5-4-9 0z"/></g>
<g transform="translate(400,351) scale(0.792) rotate(29,12,12)"><path d="M12 2C8.13 2 5 5.13 5 9c0 5.25 7 13 7 13s7-7.75 7-13c0-3.87-3.13-7-7-7z"/><circle cx="12" cy="9" r="2.5"/></g>
<g transform="translate(164,36) scale(0.625) rotate(-3,12,12)"><path d="M3 12l9-9 9 9"/><path d="M5 10v8h4v-4h6v4h4v-8"/></g>
<g transform="translate(220,429) scale(1.004) rotate(19,12,12)"><path d="M12 2C8.13 2 5 5.13 5 9c0 5.25 7 13 7 13s7-7.75 7-13c0-3.87-3.13-7-7-7z"/><circle cx="12" cy="9" r="2.5"/></g>
<g transform="translate(376,246) scale(0.923) rotate(-19,12,12)"><path d="M12 22V12"/><path d="M5 12H2l10-10 10 10h-3"/><path d="M5 17H2l10-10 10 10h-3"/></g>
<g transform="translate(401,410) scale(0.700) rotate(25,12,12)"><path d="M3 10l4-2v8l-4-2V10z"/><path d="M7 8l9-5v18l-9-5"/></g>
<g transform="translate(329,427) scale(0.973) rotate(29,12,12)"><path d="M3 10l4-2v8l-4-2V10z"/><path d="M7 8l9-5v18l-9-5"/></g>
<g transform="translate(385,242) scale(0.688) rotate(-17,12,12)"><path d="M12 22V12"/><path d="M5 12H2l10-10 10 10h-3"/><path d="M5 17H2l10-10 10 10h-3"/></g>
<g transform="translate(210,119) scale(0.933) rotate(-18,12,12)"><rect x="3" y="8" width="18" height="14" rx="1"/><path d="M21 8H3"/><path d="M12 8V22"/><path d="M8 8C8 5.8 9.8 4 12 4s4 1.8 4 4"/><path d="M12 4c-1.1 0-2-.9-2-2s.9-2 2-2 2 .9 2 2"/></g>
<g transform="translate(293,174) scale(0.730) rotate(-18,12,12)"><path d="M12 2l7 3v5c0 5-3 9-7 11C8 19 5 15 5 10V5l7-3z"/></g>
</g>
<text x="201" y="308" font-size="10.0" font-family="'Plus Jakarta Sans',sans-serif" font-weight="700" fill="#11d473" opacity="0.09" transform="rotate(17.4,201,308)" text-anchor="middle">NeyburH</text>
<text x="378" y="404" font-size="10.0" font-family="'Plus Jakarta Sans',sans-serif" font-weight="700" fill="#11d473" opacity="0.09" transform="rotate(3.4,378,404)" text-anchor="middle">NeyburH</text>
<text x="250" y="464" font-size="11.9" font-family="'Plus Jakarta Sans',sans-serif" font-weight="700" fill="#11d473" opacity="0.09" transform="rotate(17.2,250,464)" text-anchor="middle">Naija</text>
<text x="98" y="420" font-size="10.5" font-family="'Plus Jakarta Sans',sans-serif" font-weight="700" fill="#11d473" opacity="0.09" transform="rotate(8.2,98,420)" text-anchor="middle">neyborhuud</text>
<text x="389" y="479" font-size="10.1" font-family="'Plus Jakarta Sans',sans-serif" font-weight="700" fill="#11d473" opacity="0.09" transform="rotate(2.1,389,479)" text-anchor="middle">owambe</text>
<text x="406" y="286" font-size="11.9" font-family="'Plus Jakarta Sans',sans-serif" font-weight="700" fill="#11d473" opacity="0.09" transform="rotate(-15.5,406,286)" text-anchor="middle">huud</text>
<text x="266" y="393" font-size="10.2" font-family="'Plus Jakarta Sans',sans-serif" font-weight="700" fill="#11d473" opacity="0.09" transform="rotate(15.1,266,393)" text-anchor="middle">neyborhuud</text>
<text x="23" y="482" font-size="10.6" font-family="'Plus Jakarta Sans',sans-serif" font-weight="700" fill="#11d473" opacity="0.09" transform="rotate(16.6,23,482)" text-anchor="middle">Naija</text>
<text x="189" y="77" font-size="9.8" font-family="'Plus Jakarta Sans',sans-serif" font-weight="700" fill="#11d473" opacity="0.09" transform="rotate(15.8,189,77)" text-anchor="middle">Naija</text>
<text x="85" y="466" font-size="9.8" font-family="'Plus Jakarta Sans',sans-serif" font-weight="700" fill="#11d473" opacity="0.09" transform="rotate(1.9,85,466)" text-anchor="middle">NeyburH</text>
<text x="18" y="383" font-size="10.4" font-family="'Plus Jakarta Sans',sans-serif" font-weight="700" fill="#11d473" opacity="0.09" transform="rotate(-11.3,18,383)" text-anchor="middle">huud</text>
<text x="209" y="249" font-size="10.5" font-family="'Plus Jakarta Sans',sans-serif" font-weight="700" fill="#11d473" opacity="0.09" transform="rotate(-12.8,209,249)" text-anchor="middle">neyborhuud</text>
<text x="114" y="69" font-size="9.7" font-family="'Plus Jakarta Sans',sans-serif" font-weight="700" fill="#11d473" opacity="0.09" transform="rotate(-7.5,114,69)" text-anchor="middle">huud</text>
<text x="422" y="402" font-size="9.9" font-family="'Plus Jakarta Sans',sans-serif" font-weight="700" fill="#11d473" opacity="0.09" transform="rotate(-4.5,422,402)" text-anchor="middle">owambe</text>
<text x="480" y="228" font-size="10.4" font-family="'Plus Jakarta Sans',sans-serif" font-weight="700" fill="#11d473" opacity="0.09" transform="rotate(-1.0,480,228)" text-anchor="middle">huudlinked</text>
<text x="143" y="31" font-size="9.2" font-family="'Plus Jakarta Sans',sans-serif" font-weight="700" fill="#11d473" opacity="0.09" transform="rotate(-12.4,143,31)" text-anchor="middle">Naija</text>
<text x="70" y="318" font-size="10.6" font-family="'Plus Jakarta Sans',sans-serif" font-weight="700" fill="#11d473" opacity="0.09" transform="rotate(2.3,70,318)" text-anchor="middle">NeyburH</text>
<text x="240" y="13" font-size="10.5" font-family="'Plus Jakarta Sans',sans-serif" font-weight="700" fill="#11d473" opacity="0.09" transform="rotate(14.0,240,13)" text-anchor="middle">owambe</text>
<text x="178" y="365" font-size="10.5" font-family="'Plus Jakarta Sans',sans-serif" font-weight="700" fill="#11d473" opacity="0.09" transform="rotate(9.2,178,365)" text-anchor="middle">NeyburH</text>
<text x="139" y="297" font-size="10.9" font-family="'Plus Jakarta Sans',sans-serif" font-weight="700" fill="#11d473" opacity="0.09" transform="rotate(-2.2,139,297)" text-anchor="middle">huudlinked</text>
</svg>