<svg xmlns="http://www.w3.org/2000/svg" width="500" height="500" viewBox="0 0 500 500">
  <g fill="none" stroke="#11d473" stroke-width="1.5" stroke-linecap="round" stroke-linejoin="round" opacity="0.06">

    <!-- ROW 1: y=15-50 -->
    <g transform="translate(20,20) rotate(-12)">
      <path d="M12 0C12 0 3 3 3 10c0 7 9 14 9 14s9-7 9-14C21 3 12 0 12 0z"/>
      <path d="M9 10l2 2 4-5"/>
    </g>
    <g transform="translate(95,15) rotate(5)">
      <rect x="2" y="6" width="20" height="14" rx="2"/>
      <circle cx="12" cy="13" r="4"/>
      <path d="M7 6l1.5-3h7L17 6"/>
    </g>
    <g transform="translate(175,25) rotate(8)">
      <path d="M10 2a1 1 0 1 1 2 0v1a5 5 0 0 1 5 5v3l2 2H3l2-2V8a5 5 0 0 1 5-5V2z"/>
      <path d="M8 15a3 3 0 0 0 6 0"/>
      <text x="3" y="23" font-size="6" fill="#11d473" stroke="none" font-weight="bold" font-family="sans-serif">SOS</text>
    </g>
    <g transform="translate(260,18) rotate(-6)">
      <circle cx="6" cy="14" r="5"/>
      <circle cx="22" cy="14" r="5"/>
      <path d="M6 14l5-8h4l3 8"/>
      <line x1="11" y1="6" x2="18" y2="6"/>
    </g>
    <g transform="translate(345,30) rotate(-5)">
      <path d="M4 8h16l-2 12H6L4 8z"/>
      <path d="M8 8V5a4 4 0 0 1 8 0v3"/>
    </g>
    <g transform="translate(430,20) rotate(10)">
      <circle cx="10" cy="10" r="9"/>
      <ellipse cx="10" cy="10" rx="4" ry="9"/>
      <line x1="1" y1="10" x2="19" y2="10"/>
    </g>

    <!-- ROW 2: y=70-110 -->
    <g transform="translate(35,80) rotate(-20)">
      <circle cx="10" cy="10" r="9"/>
      <path d="M7 16V4l8 12V4" stroke-width="1.5"/>
      <line x1="5" y1="9" x2="17" y2="9"/>
      <line x1="5" y1="12" x2="17" y2="12"/>
    </g>
    <g transform="translate(130,70) rotate(3) scale(0.7)">
      <path d="M15 2c3 0 6 2 8 5s4 5 4 8c0 4-2 7-4 9s-5 4-8 5c-3-1-6-3-8-5s-4-5-4-9c0-3 2-5 4-8s5-5 8-5z"/>
    </g>
    <g transform="translate(205,75) rotate(-4)">
      <path d="M6 2v8c0 4 3.5 7 7 7s7-3 7-7V2"/>
      <circle cx="13" cy="21" r="3"/>
      <line x1="3" y1="2" x2="9" y2="2"/>
      <line x1="17" y1="2" x2="23" y2="2"/>
    </g>
    <g transform="translate(290,85) rotate(-8)">
      <path d="M3 3h18a2 2 0 0 1 2 2v10a2 2 0 0 1-2 2H8l-5 4v-4a2 2 0 0 1-2-2V5a2 2 0 0 1 2-2z"/>
      <circle cx="8" cy="10" r="1" fill="#11d473" stroke="none"/>
      <circle cx="13" cy="10" r="1" fill="#11d473" stroke="none"/>
      <circle cx="18" cy="10" r="1" fill="#11d473" stroke="none"/>
    </g>
    <g transform="translate(380,78) rotate(-7)">
      <line x1="4" y1="2" x2="4" y2="22"/>
      <path d="M4 2h12l-3 5 3 5H4"/>
    </g>
    <g transform="translate(460,90) rotate(10)">
      <path d="M12 0C7 0 3 4 3 9c0 7 9 15 9 15s9-8 9-15c0-5-4-9-9-9z"/>
      <circle cx="12" cy="9" r="3"/>
    </g>

    <!-- ROW 3: y=130-170 -->
    <g transform="translate(12,135) rotate(-18)">
      <circle cx="8" cy="8" r="5"/>
      <line x1="13" y1="8" x2="24" y2="8"/>
      <line x1="20" y1="8" x2="20" y2="12"/>
      <line x1="24" y1="8" x2="24" y2="12"/>
    </g>
    <g transform="translate(85,140) rotate(15) scale(0.85)">
      <path d="M2 10l5-3v10l-5-3V10z"/>
      <path d="M7 7l10-5v20L7 17"/>
      <line x1="19" y1="5" x2="23" y2="3"/>
      <line x1="19" y1="12" x2="24" y2="12"/>
      <line x1="19" y1="19" x2="23" y2="21"/>
    </g>
    <g transform="translate(170,145) rotate(5)">
      <path d="M10 1L4 12h5l-2 11 9-13h-5z"/>
    </g>
    <g transform="translate(240,132) rotate(-3)">
      <rect x="1" y="4" width="14" height="10" rx="1"/>
      <path d="M15 8h5l3 4v2h-8z"/>
      <circle cx="6" cy="16" r="2"/>
      <circle cx="20" cy="16" r="2"/>
    </g>
    <g transform="translate(330,140) rotate(-12)">
      <rect x="2" y="2" width="18" height="18" rx="2"/>
      <line x1="8" y1="2" x2="8" y2="20"/>
      <line x1="14" y1="2" x2="14" y2="20"/>
      <line x1="2" y1="8" x2="20" y2="8"/>
      <line x1="2" y1="14" x2="20" y2="14"/>
    </g>
    <g transform="translate(420,138) rotate(6)">
      <circle cx="6" cy="6" r="5"/>
      <circle cx="18" cy="6" r="5"/>
      <line x1="11" y1="6" x2="13" y2="6"/>
      <line x1="6" y1="11" x2="6" y2="16"/>
      <line x1="18" y1="11" x2="18" y2="16"/>
    </g>

    <!-- ROW 4: y=190-230 -->
    <g transform="translate(30,195) rotate(10)">
      <circle cx="9" cy="9" r="7"/>
      <path d="M16 6c2 0 4 2 4 4s-2 4-4 4"/>
      <path d="M16 8.5c1 0 2 1 2 2s-1 2-2 2"/>
    </g>
    <g transform="translate(115,200) rotate(-5)">
      <rect x="2" y="4" width="20" height="14" rx="2"/>
      <path d="M2 4c0 0 3-3 10-3s10 3 10 3"/>
      <circle cx="18" cy="11" r="2" fill="#11d473" stroke="none"/>
    </g>
    <g transform="translate(200,210) rotate(-6)">
      <path d="M3 12l9-9 9 9"/>
      <path d="M5 10v8a1 1 0 0 0 1 1h4v-5h4v5h4a1 1 0 0 0 1-1v-8"/>
    </g>
    <g transform="translate(285,195) rotate(4)">
      <rect x="2" y="4" width="18" height="16" rx="2"/>
      <line x1="2" y1="9" x2="20" y2="9"/>
      <line x1="7" y1="2" x2="7" y2="6"/>
      <line x1="15" y1="2" x2="15" y2="6"/>
      <circle cx="7" cy="14" r="1.5" fill="#11d473" stroke="none"/>
      <circle cx="11" cy="14" r="1.5" fill="#11d473" stroke="none"/>
    </g>
    <g transform="translate(375,210) rotate(12)">
      <path d="M4 22V4l14 18V4" stroke-width="2"/>
      <line x1="1" y1="10" x2="21" y2="10"/>
      <line x1="1" y1="15" x2="21" y2="15"/>
    </g>
    <g transform="translate(455,200) rotate(-8)">
      <path d="M1 12l5-5 4 2 4-3 5 5"/>
      <path d="M21 12l-5 5-4-2-4 3-5-5"/>
    </g>

    <!-- ROW 5: y=250-290 -->
    <g transform="translate(18,255) rotate(20)">
      <path d="M10 1l2.5 6.5H19l-5.3 4 2 6.5L10 14l-5.7 4 2-6.5L1 7.5h6.5z"/>
    </g>
    <g transform="translate(95,260) rotate(-15)">
      <path d="M17 2C9 2 3 10 3 18"/>
      <path d="M3 18c8 0 14-6 14-14"/>
      <line x1="3" y1="18" x2="10" y2="11"/>
    </g>
    <g transform="translate(165,268) rotate(8)">
      <circle cx="10" cy="10" r="9"/>
      <path d="M6 10l3 3 5-6"/>
    </g>
    <g transform="translate(245,255) rotate(-4)">
      <rect x="4" y="1" width="14" height="22" rx="3"/>
      <line x1="9" y1="19" x2="13" y2="19"/>
      <line x1="4" y1="5" x2="18" y2="5"/>
      <line x1="4" y1="17" x2="18" y2="17"/>
    </g>
    <g transform="translate(325,265) rotate(15) scale(0.85)">
      <path d="M5 13h3v9H5z"/>
      <path d="M8 13l3-7c1-2 4-1 3 2l-1 4h6c2 0 3 2 2.5 3.5l-2 7c-.3 1-1.2 2-2.5 2H8V13z"/>
    </g>
    <g transform="translate(405,258) rotate(-10)">
      <path d="M4 16l8-8c-1-3 0-6 3-8l3 3-2 2 2 2 3-3c2 3 1 6-2 8L11 20c-1 1-3 1-4 0l-3-3c-1-1-1-3 0-4z"/>
    </g>
    <g transform="translate(470,270) rotate(5)">
      <ellipse cx="11" cy="9" rx="10" ry="6"/>
      <circle cx="11" cy="9" r="3"/>
      <circle cx="11" cy="9" r="1" fill="#11d473" stroke="none"/>
    </g>

    <!-- ROW 6: y=310-350 -->
    <g transform="translate(15,315) rotate(8)">
      <rect x="3" y="4" width="16" height="18" rx="2"/>
      <path d="M8 2h6a1 1 0 0 1 1 1v1H7V3a1 1 0 0 1 1-1z"/>
      <line x1="7" y1="10" x2="15" y2="10"/>
      <line x1="7" y1="14" x2="13" y2="14"/>
    </g>
    <g transform="translate(100,320) rotate(-6)">
      <circle cx="10" cy="6" r="5"/>
      <path d="M0 20c0-5.5 4.5-10 10-10s10 4.5 10 10"/>
    </g>
    <g transform="translate(180,310) rotate(10)">
      <rect x="2" y="8" width="18" height="12" rx="1"/>
      <rect x="0" y="5" width="22" height="5" rx="1"/>
      <line x1="11" y1="5" x2="11" y2="20"/>
      <path d="M11 5c-2-3-6-3-6 0"/>
      <path d="M11 5c2-3 6-3 6 0"/>
    </g>
    <g transform="translate(265,325) rotate(-10) scale(0.85)">
      <path d="M17 10c0-2-1.5-3-3-3s-2 1-2 1s0-2-2-3-3 1-3 1V3c0-1.5-1-3-3-3S1 1.5 1 3v11l3-3h1l3 4v5h10v-4c2-1 4-3 4-6z"/>
    </g>
    <g transform="translate(350,335) rotate(6)">
      <circle cx="8" cy="5" r="4"/>
      <path d="M0 18c0-5 3.5-8 8-8s8 3 8 8"/>
      <circle cx="20" cy="7" r="3"/>
      <path d="M16 18c0-3 2-6 5-6s5 3 5 6"/>
    </g>
    <g transform="translate(440,320) rotate(-15)">
      <circle cx="9" cy="9" r="7"/>
      <line x1="14" y1="14" x2="20" y2="20" stroke-width="2"/>
    </g>

    <!-- ROW 7: y=370-410 -->
    <g transform="translate(25,380) rotate(-8)">
      <path d="M2 3h8c1 0 2 1 2 2v16c-1-1-2-1.5-3-1.5H2V3z"/>
      <path d="M22 3h-8c-1 0-2 1-2 2v16c1-1 2-1.5 3-1.5H22V3z"/>
    </g>
    <g transform="translate(110,385) rotate(-5)">
      <path d="M2 22L10 2l4 4-8 20z"/>
      <circle cx="18" cy="6" r="1.5" fill="#11d473" stroke="none"/>
      <circle cx="22" cy="10" r="1" fill="#11d473" stroke="none"/>
      <circle cx="16" cy="14" r="1.5" fill="#11d473" stroke="none"/>
      <line x1="14" y1="4" x2="17" y2="2"/>
      <line x1="20" y1="4" x2="21" y2="1"/>
    </g>
    <g transform="translate(195,375) rotate(12) scale(0.8)">
      <path d="M12 0C12 0 3 3 3 10c0 7 9 14 9 14s9-7 9-14C21 3 12 0 12 0z"/>
      <path d="M9 10l2 2 4-5"/>
    </g>
    <g transform="translate(270,388) rotate(-7)">
      <path d="M10 4l-7 8h4l-5 7h16l-5-7h4z"/>
      <line x1="10" y1="19" x2="10" y2="24"/>
    </g>
    <g transform="translate(355,378) rotate(14)">
      <path d="M10 2a1 1 0 1 1 2 0v1a5 5 0 0 1 5 5v3l2 2H3l2-2V8a5 5 0 0 1 5-5V2z"/>
      <path d="M8 15a3 3 0 0 0 6 0"/>
    </g>
    <g transform="translate(435,385) rotate(18)">
      <circle cx="10" cy="7" r="5"/>
      <line x1="10" y1="12" x2="10" y2="22"/>
    </g>

    <!-- ROW 8: y=430-475 -->
    <g transform="translate(40,445) rotate(-10)">
      <path d="M2 5c5-5 13-5 18 0"/>
      <path d="M5 8.5c3.5-3.5 9-3.5 12.5 0"/>
      <path d="M8 12c2-2 5-2 7 0"/>
      <circle cx="11.5" cy="15" r="1.5" fill="#11d473" stroke="none"/>
    </g>
    <g transform="translate(120,440) rotate(6)">
      <rect x="4" y="10" width="16" height="8" rx="2"/>
      <path d="M8 10V6a4 4 0 0 1 8 0v4"/>
      <line x1="12" y1="2" x2="12" y2="0"/>
      <line x1="4" y1="4" x2="2" y2="2"/>
      <line x1="20" y1="4" x2="22" y2="2"/>
    </g>
    <g transform="translate(200,450) rotate(-3) scale(0.8)">
      <path d="M3 12l9-9 9 9"/>
      <path d="M5 10v8a1 1 0 0 0 1 1h4v-5h4v5h4a1 1 0 0 0 1-1v-8"/>
    </g>
    <g transform="translate(275,438) rotate(8) scale(0.8)">
      <path d="M3 3h18a2 2 0 0 1 2 2v10a2 2 0 0 1-2 2H8l-5 4v-4a2 2 0 0 1-2-2V5a2 2 0 0 1 2-2z"/>
      <circle cx="8" cy="10" r="1" fill="#11d473" stroke="none"/>
      <circle cx="13" cy="10" r="1" fill="#11d473" stroke="none"/>
      <circle cx="18" cy="10" r="1" fill="#11d473" stroke="none"/>
    </g>
    <g transform="translate(360,455) rotate(18)">
      <path d="M12 4C10 0 4-1 2 3s-1 8 10 15C23 11 23 4 20 3s-6-3-8 1z"/>
    </g>
    <g transform="translate(445,450) rotate(-12) scale(0.8)">
      <path d="M12 0C7 0 3 4 3 9c0 7 9 15 9 15s9-8 9-15c0-5-4-9-9-9z"/>
      <circle cx="12" cy="9" r="3"/>
    </g>

    <!-- EXTRA FILLS -->
    <g transform="translate(55,50)">
      <circle cx="0" cy="0" r="2" fill="#11d473" stroke="none"/>
      <circle cx="8" cy="4" r="1.5" fill="#11d473" stroke="none"/>
      <circle cx="3" cy="10" r="2" fill="#11d473" stroke="none"/>
    </g>
    <g transform="translate(330,55) rotate(15)">
      <line x1="8" y1="0" x2="8" y2="16"/>
      <line x1="0" y1="8" x2="16" y2="8"/>
    </g>
    <g transform="translate(475,55) rotate(-5)">
      <line x1="8" y1="2" x2="8" y2="14"/>
      <circle cx="8" cy="19" r="2" fill="#11d473" stroke="none"/>
    </g>
    <g transform="translate(155,170) rotate(8)">
      <line x1="6" y1="0" x2="4" y2="18"/>
      <line x1="14" y1="0" x2="12" y2="18"/>
      <line x1="1" y1="6" x2="17" y2="6"/>
      <line x1="1" y1="12" x2="17" y2="12"/>
    </g>
    <g transform="translate(490,165) rotate(-5)">
      <circle cx="9" cy="9" r="8"/>
      <line x1="9" y1="4" x2="9" y2="9"/>
      <line x1="9" y1="9" x2="13" y2="12"/>
    </g>
    <g transform="translate(165,295) rotate(-8)">
      <rect x="1" y="3" width="20" height="14" rx="2"/>
      <path d="M1 5l10 7 10-7"/>
    </g>
    <g transform="translate(420,295) rotate(10)">
      <path d="M8 4c-3 0-6 2-6 5v8c0 3 4 5 8 5s8-2 8-5V9c0-3-3-5-6-5"/>
      <path d="M8 2c1-1 4-1 5 0"/>
      <line x1="10.5" y1="10" x2="10.5" y2="18"/>
      <path d="M8 12c0-1 1-2 3-2s3 1 3 2-1 2-3 2-3 1-3 2 1 2 3 2"/>
    </g>
    <g transform="translate(60,325) rotate(15)">
      <circle cx="9" cy="9" r="5"/>
      <line x1="9" y1="0" x2="9" y2="3"/>
      <line x1="9" y1="15" x2="9" y2="18"/>
      <line x1="0" y1="9" x2="3" y2="9"/>
      <line x1="15" y1="9" x2="18" y2="9"/>
      <line x1="3" y1="3" x2="5" y2="5"/>
      <line x1="13" y1="13" x2="15" y2="15"/>
      <line x1="15" y1="3" x2="13" y2="5"/>
      <line x1="5" y1="13" x2="3" y2="15"/>
    </g>
    <g transform="translate(240,370) rotate(-5)">
      <circle cx="10" cy="10" r="9"/>
      <circle cx="10" cy="10" r="4"/>
      <path d="M14 10v2c0 2 3 2 3 0"/>
    </g>
    <g transform="translate(470,380) rotate(12) scale(0.7)">
      <path d="M10 1L4 12h5l-2 11 9-13h-5z"/>
    </g>
    <g transform="translate(155,455)">
      <circle cx="0" cy="0" r="2" fill="#11d473" stroke="none"/>
      <circle cx="9" cy="3" r="1.5" fill="#11d473" stroke="none"/>
      <circle cx="4" cy="9" r="2" fill="#11d473" stroke="none"/>
    </g>
    <g transform="translate(325,440) rotate(-10) scale(0.65)">
      <path d="M10 1l2.5 6.5H19l-5.3 4 2 6.5L10 14l-5.7 4 2-6.5L1 7.5h6.5z"/>
    </g>
    <g transform="translate(400,345) rotate(5)">
      <path d="M3 10l5 5 10-12" stroke-width="2"/>
    </g>

  </g>
</svg>
